<svg xmlns="http://www.w3.org/2000/svg" xmlns:xlink="http://www.w3.org/1999/xlink" viewBox="0 0 344.358 124.575">
  <defs>
    <clipPath id="clip-path">
      <path id="Path_8" data-name="Path 8" d="M0-19H344.358V-143.575H0Z" transform="translate(0 143.575)" fill="#195363"/>
    </clipPath>
  </defs>
  <g id="Group_44" data-name="Group 44" transform="translate(0 143.575)">
    <g id="Group_21" data-name="Group 21" transform="translate(0 -143.575)" clip-path="url(#clip-path)">
      <g id="Group_17" data-name="Group 17" transform="translate(148.236 9.517)">
        <path id="Path_4" data-name="Path 4" d="M0-3.738H4.154V-25.59H0v-2.659H11.549c5.525,0,11.3.332,11.3,7.312,0,3.864-2.244,6.481-6.149,6.812v.084a4.093,4.093,0,0,1,3.491,2.16,38.9,38.9,0,0,1,1.495,4.154l1.164,3.988h3.157v2.659H19.942L18.113-7.1c-1.454-4.86-1.911-5.817-7.063-5.817H7.81v9.182h4.155v2.659H0ZM7.81-15.578h3.032c4.113,0,8.1,0,8.1-5.36,0-4.652-4.487-4.652-8.1-4.652H7.81Z" transform="translate(0 28.249)" fill="#195363"/>
      </g>
      <g id="Group_18" data-name="Group 18" transform="translate(175.362 17.327)">
        <path id="Path_5" data-name="Path 5" d="M-1.54,0C4.609,0,8.389,3.7,8.389,9.887s-3.78,9.887-9.929,9.887-10.1-3.7-10.1-9.887S-7.687,0-1.54,0m0,17.116c4.279,0,6.273-3.323,6.273-7.229S2.74,2.659-1.54,2.659-7.979,5.983-7.979,9.887s2.16,7.229,6.439,7.229" transform="translate(11.635)" fill="#195363"/>
      </g>
      <g id="Group_19" data-name="Group 19" transform="translate(197.069 17.744)">
        <path id="Path_6" data-name="Path 6" d="M-3.339-.405H-5.416l-7.769,18.072c-1.371,3.241-2.285,5.485-6.148,5.485a18.685,18.685,0,0,1-2.618-.25V20.326c.624.041,1.288.165,1.995.165,2.867,0,2.991-2.367,4.154-4.611L-23.156-.405h-2.077V-3.063h9.472V-.405h-3.656l5.442,12.713L-8.615-.405h-3.655V-3.063h8.932Z" transform="translate(25.233 3.063)" fill="#195363"/>
      </g>
      <g id="Group_20" data-name="Group 20" transform="translate(220.26 17.327)">
        <path id="Path_7" data-name="Path 7" d="M-2.116-2.357H-2.2c-.831,2.99-3.324,4.32-6.357,4.32-3.78,0-7.437-1.62-7.437-5.858C-15.993-9.67-10.342-10-5.773-10h3.656v-1.122c0-3.033-1.579-4.029-4.571-4.029-2.576,0-4.694.539-4.943,3.24h-3.655c.249-4.362,4.071-5.9,8.142-5.9,4.487,0,8.434.955,8.434,5.858V-1.111H4.614V1.548h-6.73ZM-8.141-.7c4.2,0,6.024-3.033,6.024-6.647H-4.983c-2.451,0-7.353,0-7.353,3.448,0,2.493,2.16,3.2,4.2,3.2" transform="translate(15.993 17.812)" fill="#195363"/>
      </g>
    </g>
    <g id="Group_22" data-name="Group 22" transform="translate(243.249 -134.058)">
      <path id="Path_9" data-name="Path 9" d="M0-3.738H3.282V-25.59H0v-2.659H6.689V-3.738H9.97v2.659H0Z" transform="translate(0 28.249)" fill="#195363"/>
    </g>
    <g id="Group_31" data-name="Group 31" transform="translate(0 -143.575)" clip-path="url(#clip-path)">
      <g id="Group_23" data-name="Group 23" transform="translate(147.611 86.173)">
        <path id="Path_10" data-name="Path 10" d="M-3.776-1.54H-6.893c-.331-4.736-3.073-7.437-7.851-7.437-6.231,0-9.887,3.7-9.887,11.342,0,6.521,3.323,11.341,9.887,11.341,4.986,0,8.018-3.655,7.976-8.474h-4.611V2.574H.3V5.232H-3.4V15.951H-6.809V12.087h-.084a9.9,9.9,0,0,1-7.851,4.279c-9.056,0-13.792-5.277-13.792-14s4.737-14,13.792-14c2.743,0,6.357,1.288,7.727,3.823h.083V-11.22h3.157Z" transform="translate(28.537 11.636)" fill="#195363"/>
      </g>
      <g id="Group_24" data-name="Group 24" transform="translate(178.46 94.399)">
        <path id="Path_11" data-name="Path 11" d="M0-2.547H3.282V-16.174H0v-2.659H6.689v3.862h.083c.582-2.866,2.949-4.278,5.816-4.278.623,0,1.08.042,1.538.082v2.785a12.708,12.708,0,0,0-2.036-.209c-4.776,0-5.4,5.027-5.4,8.891v5.152h3.905V.11H0Z" transform="translate(0 19.249)" fill="#195363"/>
      </g>
      <g id="Group_25" data-name="Group 25" transform="translate(194.063 94.399)">
        <path id="Path_12" data-name="Path 12" d="M-1.54,0C4.608,0,8.389,3.7,8.389,9.888S4.608,19.776-1.54,19.776s-10.1-3.7-10.1-9.888S-7.689,0-1.54,0m0,17.116c4.278,0,6.272-3.323,6.272-7.229S2.739,2.659-1.54,2.659-7.98,5.983-7.98,9.888s2.16,7.229,6.44,7.229" transform="translate(11.635)" fill="#195363"/>
      </g>
      <g id="Group_26" data-name="Group 26" transform="translate(215.48 94.816)">
        <path id="Path_13" data-name="Path 13" d="M-3.029-2.484H.254V.174h-6.69V-3.107h-.082C-7.266-.781-9.967.59-12.708.59c-4.9,0-6.9-2.451-6.9-6.9v-9.8h-3.282v-2.659H-16.2V-7.013c0,3.032.955,4.944,4.362,4.944,3.7,0,5.4-2.493,5.4-5.94v-8.1H-9.718v-2.659h6.689Z" transform="translate(22.887 18.769)" fill="#195363"/>
      </g>
      <g id="Group_27" data-name="Group 27" transform="translate(239.449 94.399)">
        <path id="Path_14" data-name="Path 14" d="M0-3.593H3.323v-20.48H0v-2.659H6.731v3.781h.082a6.86,6.86,0,0,1,6.564-4.2c5.858,0,9.347,3.822,9.347,9.888,0,5.941-3.323,9.888-9.347,9.888a6.828,6.828,0,0,1-6.564-4.07H6.731v7.85h3.322V-.933H0Zm13.378-6.439c3.615,0,5.692-2.95,5.692-7.229,0-3.823-1.994-7.23-5.692-7.23-4.612,0-6.646,3.407-6.646,7.23,0,4.278,2.119,7.229,6.646,7.229" transform="translate(0 27.148)" fill="#195363"/>
      </g>
      <g id="Group_28" data-name="Group 28" transform="translate(147.611 47.637)">
        <path id="Path_15" data-name="Path 15" d="M-3.833-1.546H-6.991C-7.448-6.49-10.4-9.024-15.176-9.024c-6.231,0-9.887,3.7-9.887,11.341,0,6.521,3.323,11.341,9.887,11.341,4.03,0,7.562-2.535,7.562-6.979h3.905c0,6.9-5.442,9.637-11.467,9.637-9.057,0-13.792-5.275-13.792-14s4.736-14,13.792-14c2.451,0,6.565,1.121,8.1,3.78h.083v-3.365h3.157Z" transform="translate(28.968 11.683)" fill="#195363"/>
      </g>
      <g id="Group_29" data-name="Group 29" transform="translate(175.705 55.863)">
        <path id="Path_16" data-name="Path 16" d="M-2.116-2.357H-2.2C-3.03.635-5.523,1.963-8.556,1.963c-3.78,0-7.436-1.62-7.436-5.858,0-5.775,5.65-6.106,10.22-6.106h3.655v-1.123c0-3.033-1.578-4.031-4.57-4.031-2.576,0-4.694.541-4.944,3.242h-3.655c.249-4.362,4.071-5.9,8.143-5.9,4.487,0,8.433.955,8.433,5.858V-1.11H4.614V1.548h-6.73ZM-8.14-.7c4.2,0,6.023-3.032,6.023-6.647H-4.982c-2.452,0-7.354,0-7.354,3.448,0,2.493,2.161,3.2,4.2,3.2" transform="translate(15.992 17.812)" fill="#195363"/>
      </g>
      <g id="Group_30" data-name="Group 30" transform="translate(198.027 55.863)">
        <path id="Path_17" data-name="Path 17" d="M0-2.547H3.282V-16.175H0v-2.658H6.688v3.864h.084c.581-2.868,2.95-4.28,5.816-4.28.623,0,1.08.042,1.538.082v2.785a12.708,12.708,0,0,0-2.036-.21c-4.778,0-5.4,5.028-5.4,8.892v5.152h3.906V.11H0Z" transform="translate(0 19.249)" fill="#195363"/>
      </g>
    </g>
    <g id="Group_32" data-name="Group 32" transform="translate(214.415 -95.522)">
      <path id="Path_19" data-name="Path 19" d="M0-3.738H3.282V-17.366H0v-2.658H6.689V-3.738H9.969v2.658H0ZM6.689-24.345H2.783V-28.25H6.689Z" transform="translate(0 28.25)" fill="#195363"/>
    </g>
    <g id="Group_39" data-name="Group 39" transform="translate(0 -143.575)" clip-path="url(#clip-path)">
      <g id="Group_33" data-name="Group 33" transform="translate(226.904 48.053)">
        <path id="Path_20" data-name="Path 20" d="M0-3.738H3.323V-25.591H0V-28.25H6.73v11.674h.084c1.079-2.451,3.988-3.864,6.564-3.864,5.858,0,9.347,3.822,9.347,9.887,0,5.941-3.325,9.887-9.347,9.887-2.659,0-5.65-1.494-6.564-4.277H6.73v3.862H0Zm13.378.415c3.614,0,5.692-2.95,5.692-7.229,0-3.821-1.995-7.229-5.692-7.229-4.612,0-6.648,3.408-6.648,7.229,0,4.279,2.12,7.229,6.648,7.229" transform="translate(0 28.25)" fill="#195363"/>
      </g>
      <g id="Group_34" data-name="Group 34" transform="translate(251.068 48.053)">
        <path id="Path_21" data-name="Path 21" d="M0-3.738H3.323V-25.591H0V-28.25H6.73v11.674h.083c1.08-2.451,3.989-3.864,6.565-3.864,5.857,0,9.346,3.822,9.346,9.887,0,5.941-3.323,9.887-9.346,9.887-2.659,0-5.65-1.494-6.565-4.277H6.73v3.862H0Zm13.378.415c3.614,0,5.691-2.95,5.691-7.229,0-3.821-1.994-7.229-5.691-7.229-4.612,0-6.648,3.408-6.648,7.229,0,4.279,2.119,7.229,6.648,7.229" transform="translate(0 28.25)" fill="#195363"/>
      </g>
      <g id="Group_35" data-name="Group 35" transform="translate(276.599 55.864)">
        <path id="Path_22" data-name="Path 22" d="M-.558-1.654c0,4.363,2.451,6.273,6.9,6.273,2.161,0,5.152-1.2,5.36-3.656h3.157C14.731,5.617,9.87,7.278,5.881,7.278c-6.148,0-10.094-3.7-10.094-9.888S-.267-12.5,5.881-12.5c6.73,0,9.1,4.776,9.14,10.842ZM11.614-4.311C11.407-7.76,9.33-9.838,5.632-9.838,2.35-9.838-.558-7.8-.558-4.311Z" transform="translate(4.213 12.496)" fill="#195363"/>
      </g>
      <g id="Group_36" data-name="Group 36" transform="translate(298.894 55.863)">
        <path id="Path_23" data-name="Path 23" d="M-2.116-2.357H-2.2C-3.03.635-5.524,1.963-8.554,1.963c-3.781,0-7.438-1.62-7.438-5.858,0-5.775,5.65-6.106,10.22-6.106h3.655v-1.123c0-3.033-1.581-4.031-4.57-4.031-2.576,0-4.695.541-4.945,3.242h-3.656c.251-4.362,4.072-5.9,8.145-5.9,4.485,0,8.432.955,8.432,5.858V-1.11H4.613V1.548h-6.73ZM-8.141-.7c4.2,0,6.025-3.032,6.025-6.647H-4.983c-2.451,0-7.353,0-7.353,3.448,0,2.493,2.16,3.2,4.194,3.2" transform="translate(15.992 17.812)" fill="#195363"/>
      </g>
      <g id="Group_37" data-name="Group 37" transform="translate(321.218 55.863)">
        <path id="Path_24" data-name="Path 24" d="M0-2.547H3.281V-16.175H0v-2.658H6.689v3.447H6.77a6.606,6.606,0,0,1,6.357-3.864c4.736,0,6.73,2.369,6.73,6.9v9.805h3.284V.11H13.168V-2.547h3.284v-9.1c0-3.032-1.039-4.946-4.363-4.946-3.656,0-5.4,2.577-5.4,5.942v8.1H9.969V.11H0Z" transform="translate(0 19.249)" fill="#195363"/>
      </g>
      <g id="Group_38" data-name="Group 38" transform="translate(0 0)">
        <path id="Path_25" data-name="Path 25" d="M-9.5-.338A60.068,60.068,0,0,1,50.568,59.73,60.068,60.068,0,0,1-9.5,119.8,60.068,60.068,0,0,1-69.569,59.73,60.068,60.068,0,0,1-9.5-.338m0-2.219A62.358,62.358,0,0,0-71.788,59.73,62.359,62.359,0,0,0-9.5,122.018,62.358,62.358,0,0,0,52.788,59.73,62.358,62.358,0,0,0-9.5-2.557" transform="translate(71.788 2.557)" fill="#195363"/>
      </g>
    </g>
    <g id="Group_40" data-name="Group 40" transform="translate(30.14 -116.163)">
      <path id="Path_27" data-name="Path 27" d="M-7.173-1.65l5.314,4.879L-9.3,10.063-16.884,3.1l5.894-5.412L-22.054-12.47-33.118-2.311-27.223,3.1l-7.583,6.962-7.444-6.835,5.314-4.879L-54.2-9.858-52.027,12.8H7.919L10.094-9.858Z" transform="translate(54.201 12.47)" fill="#195363"/>
    </g>
    <g id="Group_41" data-name="Group 41" transform="translate(32.659 -87.296)">
      <path id="Path_28" data-name="Path 28" d="M0,0,.683,7.121H23.11V32.642l-12-5.7,4.843-4.448L1.5,15.62,3.046,31.733,29.628,44.37,56.211,31.733,57.758,15.62,43.3,22.491l4.844,4.448-12,5.7V7.121H58.573L59.256,0Z" fill="#195363"/>
    </g>
    <g id="Group_43" data-name="Group 43" transform="translate(0 -143.575)" clip-path="url(#clip-path)">
      <g id="Group_42" data-name="Group 42" transform="translate(109.68 109.593)">
        <path id="Path_29" data-name="Path 29" d="M-.775,0A4.983,4.983,0,0,1,4.307,5.112a5.046,5.046,0,0,1-5.083,5.23,5.047,5.047,0,0,1-5.084-5.23A4.941,4.941,0,0,1-.775,0m0,9.991A4.666,4.666,0,0,0,3.883,5.112,4.556,4.556,0,0,0-.775.366,4.541,4.541,0,0,0-5.435,5.112,4.659,4.659,0,0,0-.775,9.991m-1.861-7.4H-.365c1.069,0,1.641.587,1.641,1.45A1.458,1.458,0,0,1-.058,5.537L1.319,7.632H.865L-.5,5.552H-2.21v2.08h-.426Zm.426.351V5.2H-.38A1.117,1.117,0,0,0,.865,4.042c0-.643-.425-1.1-1.245-1.1Z" transform="translate(5.859)" fill="#195363"/>
      </g>
    </g>
  </g>
</svg>
